<mxfile host="app.diagrams.net" modified="2023-09-06T19:40:53.916Z" agent="Mozilla/5.0 (Windows NT 10.0; Win64; x64) AppleWebKit/537.36 (KHTML, like Gecko) Chrome/116.0.0.0 Safari/537.36" version="21.6.8" etag="6qJBYjsnwH0g2iCeyvUR" type="github">
  <diagram name="PÃ¡gina-1" id="xleOpvRxCDGt54Y3yJqi">
    <mxGraphModel>
      <root>
        <mxCell id="0" />
        <mxCell id="1" parent="0" />
      </root>
    </mxGraphModel>
  </diagram>
</mxfile>
